<svg xmlns="http://www.w3.org/2000/svg" width="1020" height="1020" viewBox="0 0 1020 1020"><path d="M946.175,494.915h-32l32-32.048v32.048Zm49.855,0h-32V462.867l32,32.048Zm-32-57.345V264.239H946.175V437.57l-57.753,57.843,6.733,6.743a23.762,23.762,0,0,0-6.733,16.589v47.661a23.812,23.812,0,0,0,23.794,23.831h85.776a23.812,23.812,0,0,0,23.794-23.831V518.745a23.769,23.769,0,0,0-6.731-16.589l6.731-6.743L964.033,437.57Z" transform="translate(-1.786 -2.19)"/><path d="M331.764,45.91v90.957h-22.51a4.38,4.38,0,0,0-4.376,4.385v43.276h-168.7L331.764,45.91Zm102.1,90.957H411.349V31.918l323.979,152.61H438.238V141.252a4.383,4.383,0,0,0-4.378-4.385Zm585.833,88.053V208.36A23.812,23.812,0,0,0,995.9,184.528H777.289L402.552,8.009A23.63,23.63,0,0,0,392.2,3.131l-2-.941-.282.6a23.66,23.66,0,0,0-2.363-.121h-32a23.8,23.8,0,0,0-23.643,21.224L105.254,184.528H25.578A23.812,23.812,0,0,0,1.786,208.36v16.56a23.812,23.812,0,0,0,23.792,23.832H331.764v638.16h-21.72a6.726,6.726,0,0,0-6.721,6.732v34.2a6.726,6.726,0,0,0,6.721,6.732h21.72v.076h-62.84a23.811,23.811,0,0,0-23.792,23.83v39.88a23.811,23.811,0,0,0,23.792,23.831H471.082a23.811,23.811,0,0,0,23.792-23.831v-39.88a23.811,23.811,0,0,0-23.792-23.83H411.349v-.076h18.613a6.726,6.726,0,0,0,6.721-6.732v-34.2a6.726,6.726,0,0,0-6.721-6.732H411.349V248.752H995.9a23.812,23.812,0,0,0,23.792-23.832Z" transform="translate(-1.786 -2.19)"/><path d="M135.146,335.73V288.069a23.812,23.812,0,0,0-23.793-23.83H25.578a23.811,23.811,0,0,0-23.792,23.83V335.73a23.812,23.812,0,0,0,23.792,23.832h85.775a23.813,23.813,0,0,0,23.793-23.832Z" transform="translate(-1.786 -2.19)"/></svg>