<svg xmlns="http://www.w3.org/2000/svg" width="623.984" height="682.567" viewBox="0 0 623.984 682.567"><path d="M746.183,531.609,672.434,500,558.87,523.413s114.247,40.213,120.752,42.862c12.008,4.885,31.887,9.437,47.834-4.23Z" transform="translate(-558.87 -215.465)" fill="#726658"/><path d="M995.536,531.609,1069.3,500l113.559,23.415s-114.247,40.213-120.751,42.862c-12.014,4.885-31.887,9.437-47.828-4.23Z" transform="translate(-558.87 -215.465)" fill="#726658"/><path d="M1130.28,215.752c-3.146-1.1-5.948,1.158-7.885,3.509L1014.5,396.68,910.008,470.731l81.957,43.321,58.521-35.123,81.558-255.739C1132.711,220.31,1132.951,216.684,1130.28,215.752Z" transform="translate(-558.87 -215.465)" fill="#58595b"/><path d="M611.506,215.752c3.148-1.1,5.947,1.158,7.885,3.509L727.29,396.68l104.489,74.051-81.954,43.321L691.3,478.929,609.742,223.19C609.08,220.31,608.84,216.684,611.506,215.752Z" transform="translate(-558.87 -215.465)" fill="#58595b"/><path d="M861.257,631.955h19.222c28.767-7.667,66.528-11.88,106.528-11.88,9.456,0,18.925.248,28.052.712l-42.932-88.008L869.106,475.416l-104.19,57.363L745.19,573.218l-.081-.016-23.351,47.871c10.63-.641,21.8-1,32.971-1C794.739,620.079,832.5,624.292,861.257,631.955Z" transform="translate(-558.87 -215.465)" fill="#726658"/><path d="M913.108,744.467c-17.916-8.993-24.887-27.669-30.49-42.68-.61-1.638-1.622-4.66-2.8-8.158-1.151-3.434-3.006-8.966-4.313-12.553a33.759,33.759,0,0,0-4.635-.292,34.466,34.466,0,0,0-4.239.24c-1.852,5.677-3.921,11.181-5.94,16.542l-1.581,4.217c-5.6,15.011-12.572,33.693-30.486,42.684-16.737,8.407-32.066,9.946-56.225,9.946-3.522,0-6.9-.165-10.218-.4l9.519,29.892.079-.034L789.5,839.5l28.1,17.562,8.2,19.9,42.145,20.4v.678l.585-.336.581.336v-.678l45.657-20.4,8.195-19.9L947.543,839.5l27.147-85.225c-1.77.064-3.534.138-5.359.138C945.174,754.413,929.848,752.874,913.108,744.467Z" transform="translate(-558.87 -215.465)" fill="#726658"/><path d="M966.81,688.26c-4.389,2.861-15.659,3.133-18.789-7.606l24.159-13.868S976.559,681.908,966.81,688.26Z" transform="translate(-558.87 -215.465)" fill="none"/><path d="M947.243,699.87l-13.374,4.773,4.315-23.187,43.3-28.24c-26.074.1-49.884,2.25-69.045,6.278a5.581,5.581,0,0,0-2.232,3.756,18.626,18.626,0,0,0,.039,5.879c1.268,8.85,5.247,18.1,9.094,27.042q.833,1.933,1.645,3.837c3.633,8.547,7.249,13.36,11.723,15.608,10.123,5.081,19.5,5.941,36.708,5.941a93.449,93.449,0,0,0,16.1-1.246l12.376-38.855Z" transform="translate(-558.87 -215.465)" fill="#d2a36f"/><path d="M948.021,680.654c3.13,10.739,14.4,10.467,18.789,7.606,9.749-6.352,5.37-21.474,5.37-21.474Z" transform="translate(-558.87 -215.465)" fill="#726658"/><path d="M765.123,666.786l24.156,13.868c-3.13,10.739-14.4,10.467-18.788,7.606C760.742,681.908,765.123,666.786,765.123,666.786Z" transform="translate(-558.87 -215.465)" fill="none"/><path d="M809.03,715.616c5.806-2.916,9.4-10.068,11.876-15.976,3.924-9.338,7.113-17.129,9.472-25.278,1.317-4.544,1.682-8.068,1.147-11.093a5.57,5.57,0,0,0-2.23-3.775c-19.6-4.121-44.041-6.3-70.827-6.3-.987,0-1.987.02-2.977.028l43.284,28.23,4.314,23.187-13.122-4.682-.006-.036-50.8-18.469.012.037-.105-.037,12.107,38a92.024,92.024,0,0,0,21.14,2.1C789.525,721.557,798.907,720.7,809.03,715.616Z" transform="translate(-558.87 -215.465)" fill="#d2a36f"/><path d="M770.491,688.26c4.391,2.861,15.658,3.133,18.788-7.606l-24.156-13.868S760.742,681.908,770.491,688.26Z" transform="translate(-558.87 -215.465)" fill="#726658"/><path d="M1053.191,633.878c-18-2.794-42.118-4.393-66.184-4.393-39.77,0-77.145,4.218-105.282,11.88H860.013c-28.141-7.662-65.51-11.878-105.284-11.88-24.064,0-48.186,1.6-66.19,4.393,0,0-5.231,1.337-5.474,13.195-.065,2.944-.169,12.582,3.761,14.142,6.4,3.213,9.867,9.545,10.243,10.254.308.8,3.294,8.953,8.614,34.5C712.755,739.931,750.523,745,772.4,745c23.165,0,36.862-1.339,52-8.944,14.615-7.334,20.608-23.4,25.9-37.565,3.043-8.173,6.25-16.327,8.768-24.812.386-.753,4.381-2.3,11.8-2.308s11.413,1.555,11.809,2.343c1.755,3.455,7.138,20.435,8.759,24.783,5.289,14.167,11.281,30.225,25.894,37.559,15.146,7.605,28.838,8.944,52,8.944,21.882,0,59.643-5.072,66.717-39.034,5.323-25.521,8.305-33.686,8.619-34.5.364-.7,3.831-7.037,10.235-10.254,3.938-1.56,3.769-11.2,3.769-14.142C1058.671,635.829,1053.191,633.878,1053.191,633.878ZM839.413,676.984a242.768,242.768,0,0,1-9.832,26.3c-3.434,8.178-8.09,16.605-16.329,20.739-11.746,5.9-22.559,6.942-40.936,6.942-29.852,0-47.725-8.817-52.273-28.443-1.3-5.628-8.547-40.827-8.338-46.865.358-9.8,4.564-10.141,5.948-10.252,13.086-1.057,27.191-1.618,40.815-1.618,28.065,0,53.72,2.351,74.216,6.81a14.76,14.76,0,0,1,8.109,11.033C841.584,666.121,841.151,671,839.413,676.984Zm181.126,24.807c-4.552,19.631-21.27,29.174-51.125,29.174-18.373,0-29.18-1.039-40.93-6.942-8.1-4.07-12.741-12.293-16.161-20.33-4.487-10.572-9.752-21.779-11.393-33.229a28.116,28.116,0,0,1,0-8.834,14.791,14.791,0,0,1,8.112-11.033c20.5-4.459,46.16-6.81,74.223-6.81,13.617,0,27.725.561,40.809,1.618,1.383.111,5.594.453,5.95,10.254C1030.244,661.7,1021.847,696.169,1020.539,701.791Z" transform="translate(-558.87 -215.465)" fill="#27aae1"/></svg>